<svg xmlns="http://www.w3.org/2000/svg" xmlns:xlink="http://www.w3.org/1999/xlink" width="164" height="103" viewBox="0 0 492 309">
    <defs>
        <path id="a" d="M0 0h428.716v124.996H0z"/>
        <path id="c" d="M52.026 38.159C23.658 60.78 7.994 95.056 7.994 95.056l.013.014C3.041 104.774 0 116.702 0 131.208c0 73.985 64.438 113.76 105.058 113.76 54.436 0 112.783-41.73 138.796-84.129 13.082-21.324 33.35-51.123 10.702-100.025C229.786 7.327 187.496.044 149.58.044c-37.916 0-69.184 15.491-97.553 38.115"/>
        <path id="e" d="M52.026 38.159C23.658 60.78 7.994 95.056 7.994 95.056l.013.014C3.041 104.774 0 116.702 0 131.208c0 73.985 64.438 113.76 105.058 113.76 54.436 0 112.783-41.73 138.796-84.129 13.082-21.324 33.35-51.123 10.702-100.025C229.786 7.327 187.496.044 149.58.044c-37.916 0-69.184 15.491-97.553 38.115"/>
        <path id="g" d="M52.026 38.159C23.658 60.78 7.994 95.056 7.994 95.056l.013.014C3.041 104.774 0 116.702 0 131.208c0 73.985 64.438 113.76 105.058 113.76 54.436 0 112.783-41.73 138.796-84.129 13.082-21.324 33.35-51.123 10.702-100.025C229.786 7.327 187.496.044 149.58.044c-37.916 0-69.184 15.491-97.553 38.115"/>
        <path id="i" d="M52.026 38.159C23.658 60.78 7.994 95.056 7.994 95.056l.013.014C3.041 104.774 0 116.702 0 131.208c0 73.985 64.438 113.76 105.058 113.76 54.436 0 112.783-41.73 138.796-84.129 13.082-21.324 33.35-51.123 10.702-100.025C229.786 7.327 187.496.044 149.58.044c-37.916 0-69.184 15.491-97.553 38.115"/>
        <path id="k" d="M52.026 38.159C23.658 60.78 7.994 95.056 7.994 95.056l.013.014C3.041 104.774 0 116.702 0 131.208c0 73.985 64.438 113.76 105.058 113.76 54.436 0 112.783-41.73 138.796-84.129 13.082-21.324 33.35-51.123 10.702-100.025C229.786 7.327 187.496.044 149.58.044c-37.916 0-69.184 15.491-97.553 38.115"/>
        <path id="m" d="M52.026 38.159C23.658 60.78 7.994 95.056 7.994 95.056l.013.014C3.041 104.774 0 116.702 0 131.208c0 73.985 64.438 113.76 105.058 113.76 54.436 0 112.783-41.73 138.796-84.129 13.082-21.324 33.35-51.123 10.702-100.025C229.786 7.327 187.496.044 149.58.044c-37.916 0-69.184 15.491-97.553 38.115"/>
        <path id="o" d="M52.026 38.159C23.658 60.78 7.994 95.056 7.994 95.056l.013.014C3.041 104.774 0 116.702 0 131.208c0 73.985 64.438 113.76 105.058 113.76 54.436 0 112.783-41.73 138.796-84.129 13.082-21.324 33.35-51.123 10.702-100.025C229.786 7.327 187.496.044 149.58.044c-37.916 0-69.184 15.491-97.553 38.115"/>
        <path id="q" d="M52.026 38.159C23.658 60.78 7.994 95.056 7.994 95.056l.013.014C3.041 104.774 0 116.702 0 131.208c0 73.985 64.438 113.76 105.058 113.76 54.436 0 112.783-41.73 138.796-84.129 13.082-21.324 33.35-51.123 10.702-100.025C229.786 7.327 187.496.044 149.58.044c-37.916 0-69.184 15.491-97.553 38.115"/>
        <path id="s" d="M52.026 38.159C23.658 60.78 7.994 95.056 7.994 95.056l.013.014C3.041 104.774 0 116.702 0 131.208c0 73.985 64.438 113.76 105.058 113.76 54.436 0 112.783-41.73 138.796-84.129 13.082-21.324 33.35-51.123 10.702-100.025C229.786 7.327 187.496.044 149.58.044c-37.916 0-69.184 15.491-97.553 38.115"/>
        <path id="u" d="M52.026 38.159C23.658 60.78 7.994 95.056 7.994 95.056l.013.014C3.041 104.774 0 116.702 0 131.208c0 73.985 64.438 113.76 105.058 113.76 54.436 0 112.783-41.73 138.796-84.129 13.082-21.324 33.35-51.123 10.702-100.025C229.786 7.327 187.496.044 149.58.044c-37.916 0-69.184 15.491-97.553 38.115"/>
        <path id="w" d="M52.026 38.159C23.658 60.78 7.994 95.056 7.994 95.056l.013.014C3.041 104.774 0 116.702 0 131.208c0 73.985 64.438 113.76 105.058 113.76 54.436 0 112.783-41.73 138.796-84.129 13.082-21.324 33.35-51.123 10.702-100.025C229.786 7.327 187.496.044 149.58.044c-37.916 0-69.184 15.491-97.553 38.115"/>
        <path id="y" d="M119.904.576c8.173-.486 13.64 3.431 11.22 6.304-3.932 4.667-23.102 2.988-22.042-.617-4.395.753-5.925 4.164 0 6.726 5.234 2.267 18.175 3.605 28.713 2.687-7.804 1.42-17.737 3-18.74 3.072-1.839-1.037-3.393-.707-6.08-.282-1.414-1.65-14.518-5.938-27.291.424 6.457.47 8.06 1.084 9.993 2.167 1.931 1.085 6.017 1.367 11.168.16-2.52 1.41-6.079 1.395-8.34 5.732-2.263 4.335-1.934 8.012-3.394 8.86 5.09-1.791 19.75-3.865 20.598-13.008 2.734-.423 4.43-1.367 4.524-2.31 1.98-.611 19.293-3.253 24.296-4.552 5.738-1.493 11.025-5.575 8.346-9.23-.009-.012-.022-.022-.032-.036-2.683-4.917-17.22-6.474-26.47-6.474-2.799 0-5.114.142-6.469.377m47.152 1.993v-.001c5.135 2.083 13.47 9.226 8.026 11.205 4.666 2.898 13.418 3.311 13.418.413 0-1.258-2.044-3.394-5.22-5.504 2.41 1.079 4.74 2.26 7.006 3.612 6.659 4.907.57 9.454-11.853 8.34 2.398 6.77 16.418 12.83 22.183 8.8 3.124-2.184 3.17-5.09.75-8.349a59.776 59.776 0 0 1 3.898 4.465c2.234 3.508-.187 8.78-3.662 9.893-5.302 1.702-12.22-.438-14.137-2.333-.444 2.978 4.062 9.51 13.999 8.907 6.172-.374 9.228-3.93 8.194-8.794.77 2.156 1.114 4.241 1.086 6.226-.854 10.07-20.948 8.209-24.078 3.892-1.416 4.041.177 8.234 6.302 9.582 4.245.935 10.858-.702 14.746-4.595-2.562 3.465-6.617 6.161-11.68 7.721-20.25 6.243-55.433-12.407-52.261-26.44 2.114-9.347 25.478-9.123 29.445 3.968 2.74 9.049-13.179 7.793-14.476 1.097-5.833 7.584 7.21 16.755 18.663 11.5 7.516-3.449 9.963-12.689-5.916-22.623-15.879-9.938-34.195-7.206-38.191 1.437-2.712 5.863.805 12.62 12.634 20.354-2.638-.894-6.78-1.944-10.397-1.26-4.031.762-2.751 5.385 1.368 6.059 1.955-3.571 12.172-2.094 17.224-.158l-.015-.01c.618.304 1.246.608 1.89.907-4.658-.901-11.198-.582-13.529 1.41-3.992 3.41.449 8.548 4.007 9.674-.258-1.293 6.835-10.018 17.838-7.627 1.173.438 2.367.869 3.606 1.29.702.238 1.387.455 2.07.668-8.545-1-17.108 1.771-17.809 7.428-.352 2.841 1.625 8.014 6.512 8.795-1.65-3.731 12.033-15.862 20.051-14.025l-.054-.021c1.703.311 3.334.538 4.89.684-13.769.57-21.944 11.562-20.376 18.227 1.27 5.389 6.533 7.741 10.54 6.862-4.685-10.911 8.473-23.464 14.69-24.869l-.018-.002c2.47-.024 4.724-.265 6.776-.677-11.567 5.34-14.452 21.47-15.366 26.16-1.037 5.316-4.053 9.508-7.353 8.294 1.225 6.894 7.542 9.333 11.522 5 .132 2.534 2.137 9.301 10.227 13.935 5.974-5.717 7.228-10.118 5.839-17.875 2.693 2.4 8.776 2.432 7.292-6.337-2.64-1.32-4.788-2.666-9.129-10.706-4.342-8.04-1.786-17.598 2.067-19.985l-.027.006a24.935 24.935 0 0 0 2.478-1.163c-4.837 5.01-3.726 17.818.84 21.055 2.886 2.046 8.909 1.132 9.474-4.665-7.212-1.839-11.312-14.845-7.596-18.111l-.006.002c.626-.466 1.214-.95 1.755-1.453l-.003.01c-2.55 5.63-.53 15.466 6.18 11.54-3.802-6.69-1.254-14.629-.796-20.802l-.035.05c1.408-8.935-4.373-27.64-37.152-38.984a38.333 38.333 0 0 0-3.466-1.135 137.85 137.85 0 0 0-9.414-2.58c1.541.56 3.05 1.095 4.53 1.616m18.89 87.089c-.136-9.07 4.731-18.042 6.795-20.238-1.846 2.8.69 13.894 2.276 18.893 1.585 5-.54 7.59-3.245 8.43a3.488 3.488 0 0 1-1.042.163c-2.725 0-4.726-3.436-4.784-7.248M72.597 26.186c-.653.959 1.458 1.713 3.411 1.67-1.189.382-4.29 1.911-3.313 3.57.978 1.655 3.64 1.371 6.572.394-2.294 1.87-1.628 3.744 1.841 4.576 3.016.721 8.498-.323 10.663-2.592 2.634-2.762 2.887-3.925 3.654-6.615-2.846 1.945-6.885.565-7.367-.88-.588-1.761 2.106-3.473 5.92-3.939-.722-.296-2.73-.94-5.972-1.268a21.797 21.797 0 0 0-2.181-.106c-4.879 0-10.727 1.512-13.229 5.19M44.111 32.27c5.383-3.497 14.077-7.843 14.385-3.895.201 2.564-5.384 10.847-15.62 11.626.256 1.497 2.497 3.086 9.565 1.133 6.336-1.75 19.315-11.486 13.653-16.37-.746-.643-1.948-1.053-3.6-1.053-3.786 0-9.936 2.146-18.383 8.559m75.496-2.11c-2.906 2.244-9.503 5.416-5.795 9.64 2.134 2.428 8.507 1.52 12.013-1.977 3.015-3.01 2.152-10.039-4.5-13.463 1.08 2.135.876 3.797-1.718 5.8m42.78 2.845c-.424 1.45.956 2.828 3.112 3.464 2.156.636 4.136-.055 4.418-1.477.283-1.422-1.45-2.613-3.146-3.095a6.563 6.563 0 0 0-1.766-.25c-1.216 0-2.333.383-2.617 1.358M7.218 75.634c-2.835 3.892-5.03 7.944-7.143 12.63 21.76-36.838 74.731-47.231 122.503-12.82 55.004 39.623 80.645 142.5-4.587 167.995 10.538-.97 12.816-1.65 22.022-6.148 48.211-23.56 66.711-108.536-3.19-167.543-18.259-15.414-42.541-23.684-65.96-23.685-24.973 0-48.964 9.401-63.645 29.57M223.48 55.702c1.643-1.805 7.326 1.318 6.136 8.045-.54 3.062-2.37 5.53-4.78 8.133 2.5-4.1 2.527-8.182.94-10.31-1.187-1.592-4.236-2.195-6.226 1.222 2.782 1.51 5.65 5.9-.31 14.93l.004-.005c-3.24 3.542-6.6 7.9-9.074 14.128-4.165 10.49-7.37 24.027-8.264 35.373-2.954-10.639-11.171-6.065-11.171.584 3.313-2.558 9.433 8.156 11.93 14.946l.001-.02c.278 1.057.61 2.026 1.013 2.87-.008-.207-.008-.42-.014-.63 1.022-17.773 18.6-35.27 29.245-26.013 1.866-6.254-1.036-17.813-10.817-15.681-11.684 2.546-16.364 12.721-17.896 25.05.627-6.92 1.72-13.744 3.13-19.896 3.409-11.441 20.404-18.781 24.676-6.568 3.822-11.897-6.383-18.188-13.807-15.361-1.819.693-3.25 1.775-4.417 3.157a52.005 52.005 0 0 1 1.8-3.234c4.278-5.11 12.452-5.61 15.816 1.333 4.36-3.731 1.528-9.67-2.925-10.109-2.629-.258-5.128.32-7.29 1.638 3.024-2.877 6.24-4.584 9.615-5.43 11.14-2.793 13.297 10.116 13.101 13.9 0 0 2.897-.13 2.943-.854-2.632-3.661-4.316-18.49-17.12-15.155 3.818-4.495 5.945-8.577 4.961-14.329-.551-3.23-4.04-6.993-7.658-7.235a6.716 6.716 0 0 0-.418-.013c-3.426-.001-5.77 2.848-3.124 5.534m-7.974 77.234c-4.533 3.778-5.367 10.928 0 11.201 5.617.286 10.083-1.773 14.82-5.998a125.014 125.014 0 0 0-4.486 4.635c-9.74 7.083-26.847 14.564-30.414 12.67-2.84 5.335.015 9.457 2.521 10.228 4.037 1.244 11.155-3.235 17.545-9.338a73.515 73.515 0 0 0-1.831 3.17c-5.633 6.387-15.806 17.11-19.093 16.887-2.307 3.495-4.158 9.635.698 8.272 3.155-.885 8.119-6.742 13.29-14.68-5.994 12.822-12.98 28.974-10.26 33.438 1.985 3.26 9.457-1.294 18.885-12.247 9.426-10.955 16.002-27.929 12.16-31.463-3.248-2.989-9.696 2.691-13.563 10.042-3.208 6.096-2.84 10.506-.107 11.544-.188-8.673 6.6-13.385 8.203-13.103 1.602.284 2.45 2.356-.66 9.587-3.111 7.228-13.575 19.822-17.063 16.813-3.488-3.009 2.357-18.482 7.919-30.641 5.561-12.158 14.121-22.547 19.08-27.26.033-.508.009-.961.033-1.31.056-1.938.023-.859.128-3.939-3.596 2.75-12.799 5.175-17.805 1.492"/>
        <path id="A" d="M.196.003H250.95V292H.196z"/>
        <path id="C" d="M22.447 26.108C17.279 38.178.197 80.268.197 139.09c0 61.036 24.6 114.374 30.87 121.269C37.336 267.252 57.66 292 125.572 292c67.914 0 88.237-24.748 94.507-31.642 6.27-6.895 30.87-60.233 30.87-121.269 0-58.822-17.083-100.911-22.25-112.98C220.795 7.65 178.156.001 125.573.001 72.988.002 30.35 7.65 22.447 26.108"/>
        <path id="E" d="M22.447 26.108C17.279 38.178.197 80.268.197 139.09c0 61.036 24.6 114.374 30.87 121.269C37.336 267.252 57.66 292 125.572 292c67.914 0 88.237-24.748 94.507-31.642 6.27-6.895 30.87-60.233 30.87-121.269 0-58.822-17.083-100.911-22.25-112.98C220.795 7.65 178.156.001 125.573.001 72.988.002 30.35 7.65 22.447 26.108"/>
        <path id="G" d="M22.447 26.108C17.279 38.178.197 80.268.197 139.09c0 61.036 24.6 114.374 30.87 121.269C37.336 267.252 57.66 292 125.572 292c67.914 0 88.237-24.748 94.507-31.642 6.27-6.895 30.87-60.233 30.87-121.269 0-58.822-17.083-100.911-22.25-112.98C220.795 7.65 178.156.001 125.573.001 72.988.002 30.35 7.65 22.447 26.108"/>
        <path id="I" d="M22.447 26.108C17.279 38.178.197 80.268.197 139.09c0 61.036 24.6 114.374 30.87 121.269C37.336 267.252 57.66 292 125.572 292c67.914 0 88.237-24.748 94.507-31.642 6.27-6.895 30.87-60.233 30.87-121.269 0-58.822-17.083-100.911-22.25-112.98C220.795 7.65 178.156.001 125.573.001 72.988.002 30.35 7.65 22.447 26.108"/>
        <path id="K" d="M22.447 26.108C17.279 38.178.197 80.268.197 139.09c0 61.036 24.6 114.374 30.87 121.269C37.336 267.252 57.66 292 125.572 292c67.914 0 88.237-24.748 94.507-31.642 6.27-6.895 30.87-60.233 30.87-121.269 0-58.822-17.083-100.911-22.25-112.98C220.795 7.65 178.156.001 125.573.001 72.988.002 30.35 7.65 22.447 26.108"/>
        <path id="M" d="M22.447 26.108C17.279 38.178.197 80.268.197 139.09c0 61.036 24.6 114.374 30.87 121.269C37.336 267.252 57.66 292 125.572 292c67.914 0 88.237-24.748 94.507-31.642 6.27-6.895 30.87-60.233 30.87-121.269 0-58.822-17.083-100.911-22.25-112.98C220.795 7.65 178.156.001 125.573.001 72.988.002 30.35 7.65 22.447 26.108"/>
        <path id="O" d="M22.447 26.108C17.279 38.178.197 80.268.197 139.09c0 61.036 24.6 114.374 30.87 121.269C37.336 267.252 57.66 292 125.572 292c67.914 0 88.237-24.748 94.507-31.642 6.27-6.895 30.87-60.233 30.87-121.269 0-58.822-17.083-100.911-22.25-112.98C220.795 7.65 178.156.001 125.573.001 72.988.002 30.35 7.65 22.447 26.108"/>
        <path id="Q" d="M22.447 26.108C17.279 38.178.197 80.268.197 139.09c0 61.036 24.6 114.374 30.87 121.269C37.336 267.252 57.66 292 125.572 292c67.914 0 88.237-24.748 94.507-31.642 6.27-6.895 30.87-60.233 30.87-121.269 0-58.822-17.083-100.911-22.25-112.98C220.795 7.65 178.156.001 125.573.001 72.988.002 30.35 7.65 22.447 26.108"/>
        <path id="S" d="M22.447 26.108C17.279 38.178.197 80.268.197 139.09c0 61.036 24.6 114.374 30.87 121.269C37.336 267.252 57.66 292 125.572 292c67.914 0 88.237-24.748 94.507-31.642 6.27-6.895 30.87-60.233 30.87-121.269 0-58.822-17.083-100.911-22.25-112.98C220.795 7.65 178.156.001 125.573.001 72.988.002 30.35 7.65 22.447 26.108"/>
        <path id="U" d="M22.447 26.108C17.279 38.178.197 80.268.197 139.09c0 61.036 24.6 114.374 30.87 121.269C37.336 267.252 57.66 292 125.572 292c67.914 0 88.237-24.748 94.507-31.642 6.27-6.895 30.87-60.233 30.87-121.269 0-58.822-17.083-100.911-22.25-112.98C220.795 7.65 178.156.001 125.573.001 72.988.002 30.35 7.65 22.447 26.108"/>
        <path id="W" d="M22.447 26.108C17.279 38.178.197 80.268.197 139.09c0 61.036 24.6 114.374 30.87 121.269C37.336 267.252 57.66 292 125.572 292c67.914 0 88.237-24.748 94.507-31.642 6.27-6.895 30.87-60.233 30.87-121.269 0-58.822-17.083-100.911-22.25-112.98C220.795 7.65 178.156.001 125.573.001 72.988.002 30.35 7.65 22.447 26.108"/>
        <path id="Y" d="M22.447 26.108C17.279 38.178.197 80.268.197 139.09c0 61.036 24.6 114.374 30.87 121.269C37.336 267.252 57.66 292 125.572 292c67.914 0 88.237-24.748 94.507-31.642 6.27-6.895 30.87-60.233 30.87-121.269 0-58.822-17.083-100.911-22.25-112.98C220.795 7.65 178.156.001 125.573.001 72.988.002 30.35 7.65 22.447 26.108"/>
        <path id="aa" d="M22.447 26.108C17.279 38.178.197 80.268.197 139.09c0 61.036 24.6 114.374 30.87 121.269C37.336 267.252 57.66 292 125.572 292c67.914 0 88.237-24.748 94.507-31.642 6.27-6.895 30.87-60.233 30.87-121.269 0-58.822-17.083-100.911-22.25-112.98C220.795 7.65 178.156.001 125.573.001 72.988.002 30.35 7.65 22.447 26.108"/>
        <path id="ac" d="M22.447 26.108C17.279 38.178.197 80.268.197 139.09c0 61.036 24.6 114.374 30.87 121.269C37.336 267.252 57.66 292 125.572 292c67.914 0 88.237-24.748 94.507-31.642 6.27-6.895 30.87-60.233 30.87-121.269 0-58.822-17.083-100.911-22.25-112.98C220.795 7.65 178.156.001 125.573.001 72.988.002 30.35 7.65 22.447 26.108"/>
        <path id="ae" d="M123.094 29.399C43.164 29.399 10.827 13.73 15.689.68c0 0-3.215 7.982-5.041 13.572-2.108 13.818 32.31 29.888 112.446 29.888 80.135 0 114.552-16.07 112.444-29.888-1.826-5.59-5.041-13.572-5.041-13.572 4.863 13.05-27.473 28.718-107.403 28.718M.697 44.918s.174.129.473.356c.3.402.79.714 1.41 1.07 1.104.838 2.685 2.039 4.652 3.543 2.472 2.796 5.113 7.829 6.82 17.79 1.585 9.264.563 16.914-1.869 16.22-.803 2.75 2.255 7.178 4.446 7.267 6.723.679 7.25-8.021 4.625-19.746-1.574-7.033-4.808-13.299-10.655-18.954 2.05 1.573 4.379 3.365 6.94 5.344 4.687 4.9 8.368 9.847 10.676 28.728C29.75 99.09 23.82 99.99 22.412 98.792c-.766 4.414 2.307 9.39 6.233 9.838 3.927.452 12.013-1.509 10.063-18.138-1.32-11.25-4.454-18.152-9.626-23.721 1.932 1.508 3.937 3.076 5.995 4.693 18.84 21.633 10.597 44.066 4.056 44.114 1.107 13.117 21.113 14.544 19.87-5.795-.793-12.94-4.235-21.273-12.167-29.035 2.507 1.99 5.067 4.034 7.665 6.112 8.69 6.74 14.667 48.425-1.622 45.912.397 4.982 5.432 11.702 12.899 10.992 14.35-1.36 14.813-16.574 11.557-26.288-2.092-6.24-4.69-13.152-10.289-19.839A120.08 120.08 0 0 1 78.363 110.2c5.714 8.663 10.858 21.533 3.738 38.687-1.9 0-4.09-1.453-6.718 6.682-3.798-1.6-22.35-15.107-28.483 11.472 5.55-3.05 9.494-3.34 14.459 0 4.967 3.342 15.902 3.454 18.677-5.841-.281 7.146-2.025 11.07 3.672 19.64 5.697 8.569 4.61 13.54 4.171 16.3 5.112-4.937 10.456-13.888 6.366-25.218-4.088-11.329-6.448-9.819-6.448-9.819 1.023-5.084.584-7.261-1.606-10.457 1.139-4.784 4.106-16.814.056-29.923 9.673 16.296 13.67 32.824 13.998 46.831.532 22.83-7.979 37.049-19.865 43.483-14.641 2.1-29.309-7.405-30.115-14.602-4.278.8-4.066 7.11-1.465 11.64.533.928 1.19 1.836 1.955 2.698-9.007-7.49-15.334-21.594-15.334-26.109-3.41-.977-5.647 2.151-5.96 6.016-.262 3.237 1.051 7.521 3.407 11.369l-.095-.088c-8.471-11.823-9.813-27.743-7.942-29.125.085-1.696-5.692-4.068-6.612 1.426-.323 1.924-.138 4.634.828 7.859-.027-.061-.056-.12-.082-.182-19.618-46.147-4.095-60.648 7.626-45.399 10.3 13.399 5.262 30.267-.541 24.747 1.48 15.235 20.083 10.377 17.452-10.735-2.706-21.713-16.535-33.63-25.366-33.63-8.83 0-16.786 14.013-9.52 42.038 7.265 28.024 24.928 59.445 51.419 59.445 16.329 0 44.674-4.487 44.14-50.158 6.094 21.248 23.537 58.921 75.11 49.375 56.7-10.495 63.055-82.718 63.465-89.864.41-7.148 1.437-36.143 2.465-38.185 1.022-2.03 3.15-.235 3.2 1.2-.175-6.538-.796-19.177-.796-19.177-1.582-5.3-4.312-7.252-5.816-3.808-.474 1.086-.799 3.042-1.012 5.557-.853-12.426-2.473-24.049-1.049-25.906-2.16-4.391-7.993-1.49-8.304 9.347-.286 9.998 1.022 11.933 3.037 17.957-4.74-10.43-8.996-24.674-5.95-28.073-3.634-3.269-10.019 4.773-7.471 13.453 1.296 4.411 3.246 10.784 6.936 15.32-13.432.059-25.063 8.316-30.733 28.028-5.67 19.71 4.45 36.151 13.657 36.524 9.205.374 19.705-9.56 22.24-31.67 1.134-9.885-1.74-15.196-5.089-16.164-3.381-.976-9.055 2.411-8.227 11.329 2.095-3.473 9.589-3.053 8.736 8.574-.62 8.48-5.355 15.116-11.085 15.582-4.08.333-9.77-3.624-10.99-15.036-1.626-15.18 5.292-29.022 19.258-31.2 12.06-1.88 14.26 18.287 15.216 25.721.075 2.197.136 4.077.163 5.479.178 9.226-.233 12.493-.44 15.76-.065 1.04-.553 9.235-3.072 20.256 1.557-10.124.157-17.003-2.218-19.12-4.38-3.907-8 2.992-7.422 6.258 4.988-4.594 7.777 19.376.391 39.528-.218.446-.444.893-.671 1.34 2.257-6.638 2.594-12.167 2.818-15.086.766-10.031-.505-15.906-5.062-17.918-3.494-1.544-7.65.421-8.577 3.719 7.548 2.475 5.76 38.707-16.538 60.08l-.464.28c2.52-2.607 4.806-6.006 6.655-10.474 7.306-17.65-3.992-17.53-7.372-17.072-.004 13.206-11.335 28.382-21.962 34.313 7.913-5.21 13.446-21.41 3.498-21.457.912 12.323-14.201 19.169-27.622 20.237 10.074-1.386 18.645-8.085 13.526-14.717-7.461 9.384-35.13 5.996-49.47-10.336-6.556-10.403-10.264-21.21-12.166-27.892 6.85 11.999 16.694 31.196 44.692 31.196 31.03 0 42.883-27.583 51.93-29.288 3.061-.577 3.58 3.306 2.173 4.989 6.987-1.09 10.564-6.606 9.667-12.884-.559-3.91-6.739-8.192-14.036-2.81-1.824 1.346-5.449 5.461-6.998 8.553 5.16-15.136 3.826-35.04-12.41-54.708 1.275-2.56 1.952-4.746-1.091-10.128 2.198-4.54 11.846-28.917-9.3-40.86a456.468 456.468 0 0 1-3.34 18.808c-.975 4.85-3.044 15.922 3.114 22.596-3.195-2.849-9.902-5.236-17.7-1.048-10.488 5.634-16.233 6.39-18.94 7.063 4.736 6.725 19.93 19.504 36.682 4.54 2.043 2.69 4.412 4.54 6.778 2.522 8.685 10.838 12.727 20.855 13.934 30.146-3.516-11.873-13.672-19.752-27.63-17.407-12.292 2.066-16.6 11.738-11.435 21.151 6.64-8.453 22.032-8.38 24.819 6.135 2.69 14.017-3.48 29.725-19.498 33.81 2.833-2.023 7.84-7.43 9.267-11.28 6.783-18.301-11.064-29.281-20.364-16.95 6.755-.844 10.274 11.85 3.253 20.508-7.021 8.66-14.726 7.487-21.28 4.572-8.482-4.804-14.756-14.364-20.875-25.838 4.419 5.642 9.981 10.266 17.571 13.447 14.581 6.113 24.527-9.365 6.252-21.237-9.44 10.37-30.564-7.559-36.636-17.169a240.347 240.347 0 0 0-3.284-5.913c4.63 5.358 11.498 9.117 15.03 9.493 7.907.842 14.823-3.275 11.434-13.197-19.185.903-23.52-8.484-39.275-19.225 20.564 9.688 43.155 3.591 44.254-19.54.726-15.3-10.36-25.776-22.136-23.594-11.477 2.126-16.833 13.335-13.65 22.507 8.088-11.733 22.684-5.143 22.125 5.87-.807 15.872-15.682 15.469-25.285 12.242-7.2-2.42-18.458-9.29-30.733-17.675 7.32 3 13.998 2.761 18.833 1.134 15.076-5.075 12.952-24.438-.838-26.06-.357 16.218-21.686 19.58-32.261 14.872a951.921 951.921 0 0 1-3.778-2.746c11.08 3.65 25.884 1.143 25.52-10.057-.205-6.326-7.21-5.492-10.254-3.872-.536 11.172-17.331 9.743-24.062 7.444a1503.503 1503.503 0 0 1-4.139-3.088c5.331 2.55 13.338 3.393 16.203-.931 3.655-5.518 1.075-8.47-6.267-8.11 1.432 5.768-13.571 4.863-18.619 2.513C8.21 48.656 4.37 45.75 1.037 43.255c-.196.943-.34 1.663-.34 1.663M146.145 63.44c-5.214-5.381-17.384-.224-13.089 10.985-6.068 3.607-9.966 10.17-5.287 17.6 5.74 9.111 14.68 1.57 25.647-1.261-5.493-2.156-9.303-8.834-4.396-14.9 4.907-6.064 12.133-2.446 14.31 1.245-.8-12.893 3.807-14.729-.373-23.054-.808-1.61-2.988-2.579-5.523-2.579-4.683 0-10.578 3.303-11.289 11.964m50.709-5.639c-6.334 1.143-7.364 6.84-5.802 11.151 1.338 3.694 3.672 8.187 11.27 5.456 6.977-2.508 11.272-3.437 19.304-.992-4.978-6.751-12.295-15.868-21.966-15.87-.914 0-1.85.082-2.806.255m-45.276 21.63c-.875 1.635-.472 4.261.952 5.64 2.718 2.63 8.235 3.69 8.952 5.428 3.035-8.02-2.013-13.337-6.158-13.337-1.518 0-2.914.714-3.746 2.269M90.62 86.89c0 3.123 2.246 5.653 5.015 5.653 2.771 0 5.016-2.53 5.016-5.652 0-3.12-2.245-5.65-5.016-5.65-2.77 0-5.015 2.53-5.015 5.65m131.735 21.289c-2.12.01-3.331 3.564-3.494 5.647-.163 2.083.35 5.357 2.749 5.234 2.4-.123 3.145-3.21 3.27-5.266.126-2.054-.403-5.615-2.515-5.615h-.01m-96.708 22.31c2.207 6.058 8.414 4.648 13.653-.79 4.551-4.72 8.759-6.685 13.691-8.49-4.595-2.659-8.95-3.735-12.788-3.735-10.077 0-16.595 7.41-14.556 13.015M17.944 146.104c-.387 3.037 1.103 6.42 3.327 7.56 2.225 1.137 4.342-.401 4.73-3.438.386-3.037-1.102-6.421-3.328-7.56a3.196 3.196 0 0 0-1.458-.374c-1.627 0-2.97 1.455-3.271 3.812m28.627 29.241c-5.121 10.183 4.29 15.137 8.165 13.761-2.032 3.856 2.728 13.761 11.397 6.88 1.75 5.918 5.46 9.083 11.494 6.332 6.033-2.754 9.104-13.251 1.457-21.78-.778 5.975-6.539 12.538-13.54 6.285-6.999-6.254-.44-12.94.589-13.857-2.642-.247-7.272-2.976-11.665-2.976-2.97-.001-5.831 1.247-7.897 5.355m21.49-.323c-2.293 2.195-2.741 5-.593 7.607 2.02 2.453 5.384 2.458 7.624-.459 1.485-1.934 2.695-6.529 1.026-11.345-1.907 1.462-6.197 2.417-8.057 4.197M86.928 221.5c2.549 6.576 9.384 5.085 13.866 2.014 2.234-1.532 3.916-3.335 5.169-5.344.868 3.738 2.686 7.316 6.151 10.766 2.592-3.576 3.594-6.693 3.603-9.9 2.457 3.177 5.563 5.644 9.536 7.266 5.16 2.103 12.42 1.774 13.346-4.752-11.944-.666-22.651-1.435-31.953-34.227-.096 22.704-7.22 33.459-19.718 34.177m36.86 20.846c-56.53 0-96.726-21.6-112.11-41.944 2.581 5.245 5.73 14.517 7.687 17.71 10.311 13.225 53.08 36.373 104.424 36.373 51.342 0 94.111-23.148 104.421-36.372 1.96-3.194 5.107-12.466 7.689-17.711-15.386 20.344-55.581 41.944-112.11 41.944"/>
    </defs>
    <g fill="none" fill-rule="evenodd">
        <g opacity=".873" transform="translate(35.546 183.378)">
            <mask id="b" fill="#fff">
                <use xlink:href="#a"/>
            </mask>
            <path fill="#350909" fill-rule="nonzero" d="M134 0C71.376 0 0 28.585 0 50.31c0 21.727 50.767 39.34 113.388 39.34 31.443 0 59.894-4.441 80.432-11.612 27.446 20.06 76.663 46.958 146.93 46.958 64.925 0 87.966-17.537 87.966-44.095S193.94.001 133.999.001" mask="url(#b)"/>
        </g>
        <g fill-rule="nonzero">
            <path fill="#DD0E1D" d="M255.102 61.785C230.332 8.3 188.041 1.015 150.124 1.015c-37.915 0-69.183 15.493-97.552 38.115C24.204 61.753 8.54 96.027 8.54 96.027l.013.014C3.587 105.744.546 117.673.546 132.18c0 73.985 64.438 113.76 105.057 113.76 54.436 0 112.784-41.73 138.795-84.13 13.084-21.325 33.351-51.123 10.704-100.025"/>
            <path fill="#EAEAEA" d="M72.173 74.614c41.847 0 91.515 42.559 91.515 98.558 0 37.23-25.69 59.823-60.335 59.823-34.644 0-89.604-33.925-89.604-97.025 0-45.345 34.66-61.356 58.424-61.356"/>
            <path fill="#DD0E1D" d="M54.617 96.672l-.73 55.635 16.593 2.913s1.003-6.83 10.667-5.554c9.663 1.275 16.32 11.29 16.32 21.397s-3.393 16.28-12.054 15.461c-9.076-.858-13.93-10.544-14.75-15.642-4.468-.456-17.87-2.368-17.87-2.368s4.285 28.41 32.456 32.597c28.171 4.19 31.416-15.551 31.416-24.566 0-28.591-19.16-41.499-32.327-42.267-12.49-.729-16.44 3.748-16.44 3.748.547-4.188 1.397-22.596 1.397-22.596l39.293 4.37-1.458-17.21-52.513-5.918z"/>
        </g>
        <g transform="translate(.546 .971)">
            <mask id="d" fill="#fff">
                <use xlink:href="#c"/>
            </mask>
            <path fill="#EABD63" fill-rule="nonzero" d="M254.437 66.428l2.537-6.354c-19.813-42.785-50.57-58.9-86.407-60.198 60.576 9.936 78.056 54.886 83.87 66.552" mask="url(#d)"/>
        </g>
        <g transform="translate(.546 .971)">
            <mask id="f" fill="#fff">
                <use xlink:href="#e"/>
            </mask>
            <path fill="#EABD63" fill-rule="nonzero" d="M147.778 69.432c-37.733-31.817-101.167-33.166-129.62 5.88-2.834 3.888-5.03 7.937-7.142 12.619 21.76-36.803 74.74-47.186 122.516-12.808 55.01 39.583 80.654 142.358-4.588 167.827 10.54-.969 12.818-1.647 22.025-6.141 48.217-23.536 66.719-108.428-3.191-167.377" mask="url(#f)"/>
        </g>
        <g transform="translate(.546 .971)">
            <mask id="h" fill="#fff">
                <use xlink:href="#g"/>
            </mask>
            <path fill="#EABD63" fill-rule="nonzero" d="M180.876 34.711c.284-1.42-1.45-2.611-3.146-3.092-1.697-.482-3.96-.34-4.384 1.107-.424 1.448.954 2.826 3.11 3.46 2.158.636 4.138-.054 4.42-1.475" mask="url(#h)"/>
        </g>
        <g transform="translate(.546 .971)">
            <mask id="j" fill="#fff">
                <use xlink:href="#i"/>
            </mask>
            <path fill="#EABD63" fill-rule="nonzero" d="M196.908 89.322c-.135-9.06 4.732-18.024 6.797-20.217-1.847 2.798.69 13.88 2.275 18.873 1.585 4.995-.54 7.582-3.246 8.423-3.241 1.005-5.761-2.8-5.826-7.079m14.119 4.55c2.694 2.395 8.778 2.43 7.294-6.332-2.64-1.319-4.789-2.663-9.13-10.695-4.342-8.033-1.787-17.58 2.067-19.965l-.027.006a24.47 24.47 0 0 0 2.478-1.163c-4.836 5.008-3.726 17.802.84 21.035 2.887 2.044 8.91 1.13 9.476-4.661-7.213-1.836-11.315-14.83-7.597-18.093l-.007.003c.627-.465 1.214-.95 1.756-1.451l-.004.008c-2.55 5.626-.53 15.452 6.181 11.53-3.802-6.684-1.254-14.614-.795-20.781l-.035.049c1.408-8.925-4.375-27.611-37.156-38.944a38.138 38.138 0 0 0-3.467-1.135 138.162 138.162 0 0 0-9.415-2.576c1.541.56 3.05 1.094 4.53 1.614V2.32c5.134 2.081 13.47 9.216 8.026 11.194 4.667 2.895 13.419 3.306 13.419.412 0-1.257-2.044-3.39-5.22-5.498 2.41 1.077 4.74 2.257 7.006 3.609 6.66 4.9.57 9.443-11.853 8.331 2.398 6.764 16.42 12.817 22.185 8.79 3.125-2.183 3.17-5.084.75-8.34a60.148 60.148 0 0 1 3.898 4.46c2.235 3.505-.186 8.771-3.66 9.884-5.306 1.699-12.224-.437-14.14-2.331-.444 2.975 4.062 9.5 14.001 8.899 6.173-.374 9.228-3.926 8.194-8.787.77 2.155 1.113 4.238 1.086 6.221-.855 10.061-20.95 8.201-24.08 3.888-1.416 4.037.175 8.225 6.302 9.572 4.246.935 10.86-.701 14.748-4.59-2.563 3.462-6.618 6.155-11.68 7.713-20.255 6.237-55.442-12.396-52.268-26.413 2.113-9.338 25.48-9.114 29.447 3.964 2.742 9.04-13.18 7.785-14.477 1.095-5.833 7.577 7.212 16.739 18.665 11.489 7.517-3.447 9.965-12.675-5.916-22.6-15.881-9.929-34.2-7.198-38.196 1.435-2.713 5.858.804 12.608 12.636 20.334-2.639-.894-6.783-1.943-10.398-1.259-4.033.762-2.753 5.38 1.368 6.053 1.955-3.568 12.172-2.092 17.226-.157l-.015-.012c.618.305 1.245.609 1.89.907-4.659-.9-11.198-.58-13.53 1.409-3.994 3.406.448 8.538 4.007 9.665-.258-1.292 6.835-10.008 17.84-7.619 1.173.436 2.367.867 3.606 1.287.703.239 1.388.455 2.07.668-8.546-.999-17.11 1.77-17.81 7.421-.354 2.838 1.625 8.005 6.512 8.786-1.65-3.728 12.035-15.847 20.053-14.012l-.053-.02c1.702.31 3.334.537 4.89.685-13.771.568-21.948 11.549-20.378 18.207 1.27 5.383 6.534 7.733 10.541 6.855-4.686-10.9 8.474-23.44 14.693-24.844l-.019-.001c2.468-.025 4.724-.266 6.776-.677-11.568 5.334-14.453 21.448-15.367 26.134-1.039 5.31-4.055 9.498-7.354 8.285 1.225 6.887 7.542 9.324 11.523 4.995.132 2.532 2.138 9.292 10.227 13.92 5.975-5.71 7.23-10.107 5.84-17.856" mask="url(#j)"/>
        </g>
        <g transform="translate(.546 .971)">
            <mask id="l" fill="#fff">
                <use xlink:href="#k"/>
            </mask>
            <path fill="#EABD63" fill-rule="nonzero" d="M240.686 71.426c3.819-4.49 5.946-8.568 4.962-14.314-.552-3.227-4.041-6.987-7.659-7.227-3.649-.243-6.296 2.723-3.544 5.514 1.644-1.804 7.328 1.317 6.139 8.038-.54 3.06-2.372 5.523-4.78 8.125 2.499-4.096 2.526-8.174.939-10.302-1.187-1.588-4.236-2.192-6.226 1.223 2.78 1.507 5.65 5.893-.31 14.914l.004-.004c-3.241 3.538-6.602 7.893-9.076 14.113-4.165 10.48-7.372 24.004-8.266 35.339-2.953-10.63-11.17-6.06-11.17.583 3.313-2.556 9.433 8.148 11.93 14.93 0 0 0-.013.002-.02.278 1.057.61 2.024 1.013 2.868-.009-.208-.009-.42-.016-.628 1.022-17.757 18.602-35.236 29.25-25.988 1.865-6.25-1.036-17.795-10.819-15.666-11.686 2.544-16.366 12.71-17.899 25.024.63-6.913 1.721-13.729 3.131-19.875 3.41-11.43 20.407-18.762 24.68-6.561 3.823-11.885-6.385-18.171-13.809-15.347-1.819.693-3.25 1.775-4.418 3.155a52.29 52.29 0 0 1 1.8-3.231c4.28-5.105 12.454-5.604 15.819 1.332 4.36-3.727 1.527-9.66-2.927-10.099-2.627-.259-5.128.318-7.29 1.636 3.024-2.875 6.24-4.58 9.616-5.426 11.14-2.788 13.3 10.108 13.102 13.889 0 0 2.897-.131 2.943-.854-2.631-3.659-4.315-18.473-17.121-15.14" mask="url(#l)"/>
        </g>
        <g transform="translate(.546 .971)">
            <mask id="n" fill="#fff">
                <use xlink:href="#m"/>
            </mask>
            <path fill="#EABD63" fill-rule="nonzero" d="M117.798 20.951c-2.52 1.407-6.08 1.392-8.342 5.725-2.263 4.331-1.933 8.004-3.395 8.851 5.092-1.788 19.753-3.861 20.602-12.995 2.734-.422 4.43-1.364 4.524-2.307 1.98-.611 19.295-3.25 24.299-4.548 5.738-1.49 11.026-5.568 8.347-9.22-.01-.013-.022-.023-.033-.036-3.495-6.398-27.107-7.103-32.942-6.09 8.174-.486 13.641 3.427 11.221 6.297-3.934 4.661-23.105 2.984-22.045-.618-4.395.754-5.925 4.16 0 6.721 5.236 2.263 18.178 3.6 28.717 2.683-7.805 1.42-17.739 2.998-18.742 3.07-1.839-1.037-3.395-.706-6.081-.283-1.414-1.648-14.52-5.932-27.295.424 6.459.47 8.06 1.083 9.995 2.166 1.932 1.083 6.017 1.364 11.17.16" mask="url(#n)"/>
        </g>
        <g transform="translate(.546 .971)">
            <mask id="p" fill="#fff">
                <use xlink:href="#o"/>
            </mask>
            <path fill="#EABD63" fill-rule="nonzero" d="M86.958 27.583c-1.19.382-4.292 1.909-3.315 3.564.978 1.656 3.64 1.373 6.574.396-2.295 1.867-1.629 3.74 1.84 4.57 3.016.722 8.5-.322 10.665-2.59 2.634-2.757 2.887-3.92 3.655-6.606-2.848 1.942-6.887.562-7.368-.88-.588-1.758 2.105-3.47 5.921-3.935-.723-.297-2.732-.938-5.974-1.266-5.17-.524-12.521.835-15.411 5.079-.651.958 1.458 1.71 3.413 1.668" mask="url(#p)"/>
        </g>
        <g transform="translate(.546 .971)">
            <mask id="r" fill="#fff">
                <use xlink:href="#q"/>
            </mask>
            <path fill="#EABD63" fill-rule="nonzero" d="M130.56 29.884c-2.905 2.242-9.504 5.411-5.794 9.63 2.133 2.427 8.508 1.52 12.014-1.975 3.014-3.008 2.15-10.027-4.5-13.448 1.078 2.13.876 3.791-1.72 5.793" mask="url(#r)"/>
        </g>
        <g transform="translate(.546 .971)">
            <mask id="t" fill="#fff">
                <use xlink:href="#s"/>
            </mask>
            <path fill="#EABD63" fill-rule="nonzero" d="M63.388 40.848c6.335-1.749 19.317-11.474 13.653-16.354-2.451-2.112-9.846-1.706-21.984 7.498 5.383-3.493 14.077-7.836 14.386-3.891.2 2.56-5.384 10.834-15.622 11.615.257 1.495 2.497 3.083 9.567 1.132" mask="url(#t)"/>
        </g>
        <g transform="translate(.546 .971)">
            <mask id="v" fill="#fff">
                <use xlink:href="#u"/>
            </mask>
            <path fill="#EABD63" fill-rule="nonzero" d="M226.472 132.556c-4.534 3.774-5.368 10.918 0 11.191 5.618.284 10.083-1.771 14.82-5.992a124.973 124.973 0 0 0-4.485 4.63c-9.742 7.075-26.85 14.55-30.419 12.657-2.839 5.33.016 9.448 2.522 10.217 4.038 1.244 11.157-3.23 17.548-9.329a73.465 73.465 0 0 0-1.832 3.169c-5.633 6.379-15.807 17.092-19.096 16.87-2.306 3.49-4.157 9.625.7 8.262 3.155-.883 8.12-6.734 13.29-14.665-5.994 12.809-12.981 28.946-10.26 33.405 1.987 3.255 9.459-1.292 18.887-12.234 9.427-10.944 16.002-27.902 12.161-31.432-3.248-2.986-9.697 2.688-13.565 10.032-3.207 6.09-2.84 10.495-.106 11.53-.188-8.662 6.6-13.369 8.203-13.087 1.603.283 2.452 2.354-.66 9.576-3.11 7.221-13.576 19.803-17.064 16.797-3.489-3.004 2.356-18.463 7.92-30.61 5.562-12.146 14.122-22.524 19.081-27.233.032-.509.01-.961.032-1.309.057-1.936.024-.857.128-3.934-3.595 2.744-12.798 5.169-17.805 1.489" mask="url(#v)"/>
        </g>
        <g>
            <g transform="translate(.546 .971)">
                <mask id="x" fill="#fff">
                    <use xlink:href="#w"/>
                </mask>
                <path fill="#7C3813" fill-rule="nonzero" d="M160.71 235.375c63.018-40.277 27.753-104.308 90.604-182.467 16.77 90.786 9.567 180.22-90.605 182.467" mask="url(#x)"/>
            </g>
        </g>
        <g>
            <g transform="translate(11.552 .971)">
                <mask id="z" fill="#fff">
                    <use xlink:href="#y"/>
                </mask>
                <path fill="#EAEAEA" fill-rule="nonzero" d="M153.592 132.919c-9.567-29.12-19.175-45.742-38.958-53.166 36.265-25.779 80.863-34.14 88.173-10.333 7.312 23.806-24.73 37.381-49.215 63.499" mask="url(#z)"/>
            </g>
        </g>
        <g>
            <g transform="translate(239.546 4.363)">
                <mask id="B" fill="#fff">
                    <use xlink:href="#A"/>
                </mask>
                <path fill="#DD0E1D" fill-rule="nonzero" d="M220.08 260.358c6.27-6.896 30.87-60.232 30.87-121.268 0-58.823-17.083-100.913-22.25-112.982C220.794 7.65 178.156.003 125.572.003 72.989.003 30.35 7.65 22.447 26.108 17.278 38.178.197 80.267.197 139.09c0 61.036 24.598 114.372 30.87 121.268C37.336 267.253 57.66 292 125.572 292s88.237-24.748 94.507-31.643" mask="url(#B)"/>
            </g>
            <path fill="#EAEAEA" fill-rule="nonzero" d="M452.815 28.995c0 10.195-40.16 16.163-88.808 16.163-48.646 0-86.584-8.265-86.584-18.46 0-10.193 37.938-18.459 86.584-18.459 48.649 0 88.808 10.561 88.808 20.756"/>
            <path fill="#DD0E1D" fill-rule="nonzero" d="M298.956 23.317c-.094.188 14.996 1.446 14.996 1.446s-3.758 2.512 1.986 3.542c5.845 1.049 18.404 1.355 21.877-1.492 3.938-3.227-12.942-4.125-13.635-4.125.945-.505 4.033-2.592 4.033-2.592s6.116.696 8.89.569c2.773-.127 9.014.443 11.031-1.77 2.017-2.214-5.232-2.846-7.754-2.91-2.521-.062-11.158-.316-13.932 1.961-3.53-.316-13.49-1.202-13.49-1.202s7.755-4.299 28.683-3.604c20.93.696 24.081 4.49 23.324 5.754-.755 1.266-3.025 3.478-15.949 3.984 4.603 1.075 7.25 2.783 6.367 3.985-.882 1.2-4.6 6.955-36.625 5.375-8.259-.886-29.896-2.223-19.802-8.921M408.715 28.95c-7.502 5.816-13.427 7.334-21.054 6.259-7.629-1.075-12.42-2.087-2.144-9.106 3.277-2.593 10.15-5.5 18.848-4.68 8.7.823 11.852 1.708 4.35 7.526m-1.008-10.307c-5.593-.372-24.964-2.72-39.21 6.576-14.248 9.295-.064 11.825 16.705 13.469 16.768 1.645 32.969-.316 42.236-9.356 9.267-9.04-15.003-10.564-19.731-10.69"/>
            <g>
                <g transform="translate(239.546 4.363)">
                    <mask id="D" fill="#fff">
                        <use xlink:href="#C"/>
                    </mask>
                    <path fill="#EABD63" fill-rule="nonzero" d="M125.573 73.552c80.172 0 114.604-16.028 112.495-29.809-1.828-5.575-5.044-13.537-5.044-13.537 4.866 13.017-27.485 28.643-107.45 28.643-79.967 0-112.318-15.626-107.452-28.643 0 0-3.216 7.962-5.044 13.537-2.11 13.781 32.324 29.809 112.495 29.809" mask="url(#D)"/>
                </g>
                <g transform="translate(239.546 4.363)">
                    <mask id="F" fill="#fff">
                        <use xlink:href="#E"/>
                    </mask>
                    <path fill="#EABD63" fill-rule="nonzero" d="M250.154 101.928c-1.583-5.285-4.314-7.232-5.819-3.798-.474 1.085-.799 3.035-1.013 5.543-.852-12.392-2.473-23.984-1.048-25.838-2.162-4.378-7.997-1.484-8.308 9.323-.285 9.971 1.023 11.9 3.039 17.91-4.743-10.404-9-24.608-5.953-27.998-3.636-3.26-10.024 4.76-7.475 13.417 1.297 4.4 3.248 10.754 6.939 15.279-13.438.059-25.074 8.294-30.746 27.952-5.673 19.658 4.451 36.055 13.662 36.428 9.211.373 19.713-9.536 22.251-31.585 1.134-9.86-1.74-15.156-5.091-16.122-3.383-.974-9.06 2.404-8.231 11.299 2.097-3.464 9.594-3.046 8.74 8.55-.622 8.459-5.357 15.075-11.09 15.541-4.082.332-9.774-3.614-10.996-14.997-1.627-15.138 5.295-28.943 19.267-31.115 12.066-1.875 14.265 18.237 15.223 25.652.076 2.19.136 4.067.163 5.463.178 9.202-.233 12.461-.44 15.72-.065 1.036-.553 9.21-3.075 20.2 1.56-10.096.158-16.956-2.217-19.068-4.383-3.898-8.004 2.984-7.427 6.241 4.991-4.58 7.782 19.325.394 39.422-.22.446-.445.892-.673 1.337 2.258-6.62 2.596-12.135 2.82-15.046.767-10.004-.505-15.863-5.065-17.87-3.495-1.539-7.653.42-8.58 3.71 7.551 2.467 5.763 38.604-16.547 59.92a47.44 47.44 0 0 1-.464.277c2.522-2.6 4.809-5.99 6.66-10.446 7.308-17.6-3.994-17.483-7.376-17.025-.005 13.171-11.34 28.306-21.972 34.22 7.917-5.195 13.452-21.352 3.5-21.399.912 12.29-14.208 19.118-27.634 20.183 10.078-1.383 18.651-8.064 13.53-14.679-7.463 9.36-35.146 5.98-49.49-10.307-6.56-10.374-10.269-21.154-12.172-27.818 6.852 11.968 16.701 31.114 44.711 31.114 31.044 0 42.902-27.51 51.954-29.21 3.062-.576 3.581 3.296 2.174 4.974 6.99-1.085 10.568-6.587 9.671-12.849-.56-3.899-6.743-8.17-14.042-2.802-1.826 1.342-5.451 5.446-7.002 8.53 5.164-15.095 3.828-34.946-12.415-54.562 1.276-2.554 1.953-4.733-1.09-10.1 2.197-4.527 11.85-28.84-9.306-40.75a453.884 453.884 0 0 1-3.34 18.756c-1.014 5.031-3.213 16.77 3.892 23.311-2.775-3.133-9.982-6.373-18.484-1.82-10.494 5.618-16.241 6.373-18.948 7.043 4.736 6.709 19.937 19.453 36.697 4.529 2.043 2.683 4.412 4.527 6.78 2.515 8.69 10.809 12.733 20.799 13.94 30.065-3.517-11.841-13.678-19.7-27.642-17.359-12.297 2.06-16.606 11.705-11.44 21.094 6.642-8.432 22.043-8.358 24.83 6.119 2.692 13.979-3.482 29.645-19.506 33.719 2.834-2.019 7.843-7.41 9.271-11.25 6.786-18.253-11.069-29.204-20.373-16.905 6.758-.842 10.279 11.817 3.254 20.454-7.024 8.635-14.732 7.467-21.289 4.56-8.487-4.791-14.763-14.326-20.884-25.77 4.422 5.627 9.985 10.238 17.578 13.412 14.588 6.096 24.539-9.34 6.255-21.18-9.444 10.34-30.578-7.539-36.652-17.125a241.454 241.454 0 0 0-3.285-5.895c4.631 5.342 11.503 9.091 15.036 9.467 7.91.84 14.829-3.266 11.44-13.162-19.195.9-23.532-8.461-39.293-19.173 20.573 9.662 43.175 3.581 44.274-19.489.727-15.26-10.366-25.707-22.146-23.53-11.482 2.12-16.84 13.298-13.656 22.445 8.09-11.7 22.695-5.129 22.134 5.857-.807 15.829-15.688 15.427-25.296 12.208-7.203-2.414-18.466-9.265-30.746-17.628 7.323 2.992 14.004 2.755 18.84 1.132 15.083-5.062 12.958-24.374-.837-25.992-.358 16.175-21.696 19.528-32.276 14.833a952.242 952.242 0 0 1-3.78-2.738c11.086 3.64 25.896 1.14 25.532-10.03-.205-6.31-7.212-5.479-10.259-3.863-.536 11.143-17.339 9.717-24.072 7.425a1766.92 1766.92 0 0 1-4.142-3.08c5.335 2.542 13.345 3.384 16.212-.93 3.656-5.501 1.074-8.446-6.271-8.087 1.434 5.752-13.577 4.85-18.627 2.506-4.176-3.14-8.018-6.037-11.352-8.526-.197.94-.34 1.659-.34 1.659l.473.355c.298.402.79.711 1.41 1.067 1.105.835 2.686 2.034 4.654 3.533 2.473 2.789 5.115 7.809 6.822 17.744 1.587 9.237.564 16.868-1.867 16.175-.805 2.742 2.253 7.16 4.446 7.249 6.726.676 7.253-8.001 4.628-19.693-1.576-7.015-4.812-13.265-10.66-18.904 2.05 1.569 4.38 3.356 6.943 5.33 4.688 4.885 8.37 9.82 10.68 28.65 1.537 12.522-4.397 13.418-5.805 12.223-.768 4.403 2.308 9.365 6.236 9.813 3.928.45 12.017-1.506 10.066-18.09-1.321-11.22-4.456-18.102-9.63-23.658a2300.8 2300.8 0 0 1 5.998 4.682c18.85 21.575 10.602 43.947 4.058 43.996 1.108 13.082 21.122 14.503 19.877-5.781-.791-12.906-4.234-21.215-12.171-28.957 2.509 1.985 5.07 4.023 7.669 6.096 8.694 6.72 14.674 48.294-1.623 45.79.396 4.967 5.434 11.669 12.905 10.962 14.357-1.356 14.82-16.531 11.563-26.217-2.094-6.225-4.693-13.117-10.294-19.786a119.77 119.77 0 0 1 11.322 12.527c5.716 8.64 10.862 21.476 3.74 38.584-1.901 0-4.092-1.45-6.723 6.663-3.8-1.593-22.359-15.065-28.495 11.443 5.552-3.042 9.498-3.331 14.467 0 4.968 3.332 15.907 3.444 18.684-5.826-.282 7.126-2.025 11.04 3.672 19.587 5.7 8.546 4.613 13.505 4.175 16.257 5.114-4.925 10.46-13.852 6.369-25.15-4.09-11.299-6.451-9.793-6.451-9.793 1.023-5.07.584-7.242-1.608-10.429 1.14-4.771 4.109-16.77.055-29.843 9.68 16.252 13.679 32.735 14.006 46.705.533 22.768-7.982 36.95-19.873 43.367-14.649 2.093-29.322-7.386-30.13-14.563-4.28.798-4.067 7.09-1.464 11.609.533.926 1.19 1.832 1.954 2.69-9.01-7.468-15.34-21.536-15.34-26.04-3.413-.973-5.649 2.147-5.963 6.002-.263 3.228 1.051 7.5 3.41 11.338l-.095-.087c-8.476-11.793-9.818-27.67-7.946-29.048.085-1.69-5.694-4.057-6.616 1.423-.322 1.919-.137 4.621.828 7.837-.026-.062-.055-.118-.08-.18-19.627-46.024-4.098-60.487 7.629-45.278 10.303 13.362 5.262 30.185-.542 24.68 1.481 15.195 20.09 10.35 17.46-10.706-2.707-21.656-16.543-33.54-25.378-33.54-8.834 0-16.792 13.975-9.524 41.925 7.269 27.95 24.94 59.287 51.443 59.287 16.336 0 44.692-4.476 44.16-50.024 6.095 21.191 23.546 58.763 75.142 49.242 56.725-10.466 63.082-82.497 63.493-89.623.41-7.128 1.439-36.046 2.466-38.083 1.027-2.036 3.175-.215 3.201 1.22-.173-6.513-.796-19.15-.796-19.15" mask="url(#F)"/>
                </g>
                <g transform="translate(239.546 4.363)">
                    <mask id="H" fill="#fff">
                        <use xlink:href="#G"/>
                    </mask>
                    <path fill="#EABD63" fill-rule="nonzero" d="M154.07 108.746c-.875 1.63-.473 4.251.952 5.626 2.721 2.623 8.24 3.679 8.956 5.412 4.151-10.928-6.8-16.822-9.908-11.038" mask="url(#H)"/>
                </g>
                <g transform="translate(239.546 4.363)">
                    <mask id="J" fill="#fff">
                        <use xlink:href="#I"/>
                    </mask>
                    <path fill="#EABD63" fill-rule="nonzero" d="M128.13 159.67c2.205 6.041 8.417 4.636 13.658-.787 4.554-4.709 8.764-6.667 13.697-8.469-16.666-9.615-30.172 1.538-27.355 9.257" mask="url(#J)"/>
                </g>
                <g transform="translate(239.546 4.363)">
                    <mask id="L" fill="#fff">
                        <use xlink:href="#K"/>
                    </mask>
                    <path fill="#EABD63" fill-rule="nonzero" d="M193.562 98.296c1.339 3.684 3.674 8.165 11.275 5.441 6.98-2.502 11.276-3.428 19.312-.99-5.45-7.368-13.704-17.565-24.783-15.573-6.335 1.141-7.367 6.821-5.804 11.122" mask="url(#L)"/>
                </g>
                <g transform="translate(239.546 4.363)">
                    <mask id="N" fill="#fff">
                        <use xlink:href="#M"/>
                    </mask>
                    <path fill="#EABD63" fill-rule="nonzero" d="M165.455 83.438c-2.303-4.57-15.723-3.955-16.82 9.36-5.215-5.367-17.391-.224-13.093 10.956-6.072 3.596-9.972 10.144-5.291 17.553 5.742 9.087 14.686 1.565 25.66-1.257-5.496-2.15-9.309-8.81-4.4-14.86 4.91-6.05 12.14-2.44 14.316 1.242-.8-12.86 3.81-14.691-.372-22.994" mask="url(#N)"/>
                </g>
                <g transform="translate(239.546 4.363)">
                    <mask id="P" fill="#fff">
                        <use xlink:href="#O"/>
                    </mask>
                    <path fill="#EABD63" fill-rule="nonzero" d="M77.55 211.211c1.487-1.93 2.698-6.512 1.028-11.315-1.908 1.457-6.2 2.41-8.061 4.186-2.294 2.188-2.742 4.986-.595 7.587 2.022 2.445 5.388 2.452 7.629-.458" mask="url(#P)"/>
                </g>
                <g transform="translate(239.546 4.363)">
                    <mask id="R" fill="#fff">
                        <use xlink:href="#Q"/>
                    </mask>
                    <path fill="#EABD63" fill-rule="nonzero" d="M49.017 204.404c-5.123 10.156 4.293 15.097 8.168 13.725-2.032 3.844 2.73 13.724 11.403 6.86 1.75 5.903 5.463 9.06 11.498 6.315 6.035-2.745 9.108-13.214 1.457-21.722-.778 5.96-6.541 12.505-13.544 6.27-7.002-6.237-.441-12.906.59-13.821-4.432-.411-14.449-7.782-19.572 2.373" mask="url(#R)"/>
                </g>
                <g transform="translate(239.546 4.363)">
                    <mask id="T" fill="#fff">
                        <use xlink:href="#S"/>
                    </mask>
                    <path fill="#EABD63" fill-rule="nonzero" d="M103.264 252.445c2.235-1.527 3.919-3.327 5.17-5.33.87 3.729 2.688 7.297 6.156 10.738 2.593-3.566 3.595-6.675 3.603-9.873 2.46 3.167 5.566 5.628 9.541 7.246 5.161 2.098 12.424 1.77 13.351-4.74-11.949-.664-22.66-1.431-31.966-34.135-.097 22.643-7.224 33.368-19.726 34.085 2.55 6.56 9.386 5.072 13.87 2.009" mask="url(#T)"/>
                </g>
                <g transform="translate(239.546 4.363)">
                    <mask id="V" fill="#fff">
                        <use xlink:href="#U"/>
                    </mask>
                    <path fill="#EABD63" fill-rule="nonzero" d="M224.134 148.272c2.4-.122 3.147-3.203 3.272-5.253.125-2.05-.404-5.611-2.525-5.6-2.123.01-3.334 3.554-3.496 5.633-.164 2.077.349 5.341 2.75 5.22" mask="url(#V)"/>
                </g>
                <g transform="translate(239.546 4.363)">
                    <mask id="X" fill="#fff">
                        <use xlink:href="#W"/>
                    </mask>
                    <path fill="#EABD63" fill-rule="nonzero" d="M103.123 116.188c0-3.112-2.247-5.635-5.019-5.635-2.771 0-5.018 2.523-5.018 5.635 0 3.114 2.247 5.636 5.018 5.636 2.772 0 5.019-2.522 5.019-5.636" mask="url(#X)"/>
                </g>
                <g transform="translate(239.546 4.363)">
                    <mask id="Z" fill="#fff">
                        <use xlink:href="#Y"/>
                    </mask>
                    <path fill="#EABD63" fill-rule="nonzero" d="M25.11 171.813c-2.227-1.135-4.344.4-4.732 3.428-.387 3.029 1.102 6.404 3.328 7.539 2.225 1.135 4.344-.4 4.73-3.428.389-3.028-1.1-6.404-3.327-7.54" mask="url(#Z)"/>
                </g>
                <g transform="translate(239.546 4.363)">
                    <mask id="ab" fill="#fff">
                        <use xlink:href="#aa"/>
                    </mask>
                    <path fill="#EABD63" fill-rule="nonzero" d="M126.269 271.226c-56.556 0-96.77-21.542-112.16-41.832 2.582 5.232 5.732 14.479 7.69 17.663 10.316 13.19 53.104 36.275 104.47 36.275 51.365 0 94.153-23.084 104.469-36.275 1.959-3.184 5.107-12.43 7.689-17.663-15.39 20.29-55.603 41.832-112.158 41.832" mask="url(#ab)"/>
                </g>
            </g>
            <g>
                <g transform="translate(239.546 4.363)">
                    <mask id="ad" fill="#fff">
                        <use xlink:href="#ac"/>
                    </mask>
                    <path fill="#7C3813" fill-rule="nonzero" d="M13.74 44.961c-15.337 95.28 14.76 189.082 63.646 242.956-13.749.27-30.768 4.084-49.236-15.597C2.95 219.235-21.703 124.55 13.74 44.96" mask="url(#ad)"/>
                </g>
            </g>
            <g>
                <g transform="translate(242.08 33.224)">
                    <mask id="af" fill="#fff">
                        <use xlink:href="#ae"/>
                    </mask>
                    <path fill="#EAEAEA" fill-rule="nonzero" d="M59.587 15.53c-5.056 78.367 19.815 129.603 59.445 129.603 39.63 0 72.769-24.651 71.375-133.836-37.634 13.934-97.971 14.43-130.82 4.234" mask="url(#af)"/>
                </g>
            </g>
        </g>
    </g>
</svg>
